<svg xmlns="http://www.w3.org/2000/svg" viewBox="41 0.35 430 511.65"><g fill="none" fill-rule="evenodd"><path fill="#58408C" d="M139.746 182.246Q226.97 186.326 267 200c22.788 7.785 81.275 46.333 84.097 52.53q.33.726.996 2.26 55.518 135.755 33.594 219.51c-15.793 60.334-79.932 37.065-103.644-1.797-20.63-33.811-29.003-88.874-40.557-86.969-26.507 4.37-62.665 136.487-156.158 125.858-48.068-5.465-48.96-72.744-39.798-129.265q20.58-126.96 94.216-199.88M211.978 210q-56.205 17.082-55.976 73.71c.099 24.632 40.95 34.782 70.828 30.233 60.244-9.172 48.864-41.215 40.182-62.654q-4.068-10.047-20.682-28.652z"/><path fill="#000" d="M256 226c116 36 215 54.502 215 36 0-15.344-12.38-52.009-121.567-107.429Q350.618 114.877 352 106c7-45 44-91 30-104S275 56 236 88q-9.548 7.835-34.924 22.647C117.71 102.987 68.836 105.34 56 127c-7 15 84 63 200 99"/></g></svg>