<svg xmlns="http://www.w3.org/2000/svg" xml:space="preserve" id="Layer_1" x="0" y="0" version="1.1" viewBox="0 0 512 512"><style>.st0{fill:#fff}</style><g id="Layer_2_1_"><g id="Layer_2-2"><g id="Layer_4"><circle id="Layer_5" cx="256" cy="256" r="256" class="st0"/><linearGradient id="SVGID_1_" x1="255.503" x2="255.503" y1="-477.434" y2="17.434" gradientTransform="translate(0 486)" gradientUnits="userSpaceOnUse"><stop offset=".32" style="stop-color:#cd9d49"/><stop offset=".99" style="stop-color:#875d27"/></linearGradient><circle cx="255.5" cy="256" r="247.4" style="fill:url(#SVGID_1_)"/></g><path d="M416.2 237.6c-2-1.7-5.1-4.1-9.4-7v-32.8c0-83.6-67.7-151.3-151.3-151.3s-151.3 67.7-151.3 151.3v32.8c-4.2 2.9-7.3 5.4-9.4 7-1.7 1.4-2.7 3.5-2.7 5.8v39.3c0 2.2 1 4.3 2.7 5.8 4.7 3.9 15.4 12 32.1 20.4v3.8c0 10.3 6.6 18.6 14.8 18.6s14.8-8.4 14.8-18.6v-94.2c0-10.3-6.6-18.6-14.8-18.6-7.9 0-14.3 7.7-14.8 17.3v-19.4c0-71 57.6-128.6 128.6-128.6 71.1 0 128.6 57.6 128.6 128.6v19.4c-.5-9.7-7-17.3-14.8-17.3-8.2 0-14.8 8.4-14.8 18.6v94.2c0 10.3 6.6 18.6 14.8 18.6s14.8-8.4 14.8-18.6v-3.8c16.7-8.4 27.4-16.5 32.1-20.4 1.7-1.4 2.7-3.6 2.7-5.8v-39.3c-.1-2.3-1-4.4-2.7-5.8" class="st0"/><path d="M202.7 401.3c9.9 0 17.9-8 17.9-17.9V182.8c0-9.9-8-17.9-17.9-17.9h-18.5c-9.9 0-17.9 8-17.9 17.9v200.6c0 9.9 8 17.9 17.9 17.9zM173.1 213h40.8v4.3h-40.8zm91.6 188.3c9.9 0 17.9-8 17.9-17.9V182.8c0-9.9-8-17.9-17.9-17.9h-18.5c-9.9 0-17.9 8-17.9 17.9v200.6c0 9.9 8 17.9 17.9 17.9zM235.1 213h40.8v4.3h-40.8zm91.7 188.3c9.9 0 17.9-8 17.9-17.9V182.8c0-9.9-8-17.9-17.9-17.9h-18.5c-9.9 0-17.9 8-17.9 17.9v200.6c0 9.9 8 17.9 17.9 17.9zM297.1 213h40.8v4.3h-40.8zM135.4 407.5h240.2c7.4 0 13.5 6 13.5 13.5 0 7.4-6 13.5-13.5 13.5H135.4c-7.4 0-13.5-6-13.5-13.5s6-13.5 13.5-13.5" class="st0"/></g></g></svg>