<svg xmlns="http://www.w3.org/2000/svg" xml:space="preserve" viewBox="33.1 0.01 445.8 512"><path d="M465.305 499.705v-487.9h-35V.105h48.6v511.9h-48.6v-11.7zm-301.9-332.7v24.6h.7c6.2-9 14.3-16.5 23.8-21.9 9.3-5.2 20-7.8 31.8-7.8 11.5 0 22.1 2.2 31.5 6.7 9.5 4.5 16.8 12.3 21.8 23.7 5.4-8 12.7-15.1 22.1-21.1 9.3-6.1 20.3-9.2 33-9.2 9.6 0 18.6 1.2 26.7 3.5 8.2 2.4 15.3 6.1 21.1 11.3 5.9 5.2 10.4 11.9 13.7 20.3s4.9 18.4 4.9 30.2v122.1h-50.1v-103.3c0-6.1-.2-11.9-.7-17.3-.3-4.9-1.6-9.7-3.9-14.1-2.1-4-5.4-7.3-9.3-9.5-4.1-2.3-9.7-3.5-16.8-3.5-7 0-12.7 1.4-17.1 4-4.4 2.7-7.8 6.2-10.2 10.6-2.5 4.6-4.2 9.6-4.9 14.8q-1.2 8.4-1.2 16.8v101.6h-50.1v-102.4c0-5.4-.1-10.8-.3-16-.2-5-1.2-10-3-14.7-1.7-4.4-4.8-8.2-8.8-10.8-4.1-2.7-10.2-4-18.2-4-3.2.1-6.3.7-9.3 1.6-4.1 1.2-8 3.2-11.3 6-3.6 2.9-6.8 7.2-9.3 12.7-2.6 5.5-3.9 12.8-3.9 21.8v105.9h-50.2v-182.4zm-116.7-154.7v487.9h35v11.7h-48.6V.005h48.5v11.7z" style="fill:#040404"/></svg>