<svg xmlns="http://www.w3.org/2000/svg" style="shape-rendering:geometricPrecision;text-rendering:geometricPrecision;image-rendering:optimizeQuality;fill-rule:evenodd;clip-rule:evenodd" viewBox="-0.5 -0.5 192 192"><path style="opacity:.996" fill="#8e3131" d="M30.5-.5h130c16 4.667 26.333 15 31 31v130c-4.667 16-15 26.333-31 31h-130c-16-4.667-26.333-15-31-31v-130c4.667-16 15-26.333 31-31z"/><path style="opacity:1" fill="#fdfcfc" d="M114.5 24.5c1.21 21.83 1.71 43.83 1.5 66a4142.154 4142.154 0 0 1-41.5 35 2346.109 2346.109 0 0 0-45.5 37 1122.444 1122.444 0 0 1 0-67 8208.76 8208.76 0 0 1 85.5-71z"/><path style="opacity:1" fill="#d1abab" d="M114.5 24.5c.06-.543.393-.876 1-1a883.57 883.57 0 0 1 1.5 42 2283.617 2283.617 0 0 0 43.5-36 1089.684 1089.684 0 0 1 1 66 11605.19 11605.19 0 0 1-86.5 72 882.407 882.407 0 0 1-.5-42 4142.154 4142.154 0 0 0 41.5-35c.21-22.17-.29-44.17-1.5-66z"/><path style="opacity:1" fill="#af6e6e" d="M160.5 29.5c.06-.543.393-.876 1-1 1.328 22.496 1.328 44.83 0 67 .331-22.173-.003-44.173-1-66z"/></svg>