<svg xmlns="http://www.w3.org/2000/svg" xml:space="preserve" id="Layer_1" x="0" y="0" version="1.1" viewBox="0 0 118 118"><style>.st1{fill:none;stroke:#fff;stroke-width:6;stroke-miterlimit:10}.st2{fill:#fff}</style><linearGradient id="SVGID_1_" x1="59.05" x2="59.05" y1="2.95" y2="120.35" gradientTransform="matrix(1 0 0 -1 0 120.7)" gradientUnits="userSpaceOnUse"><stop offset="0" style="stop-color:#0882c8"/><stop offset="1" style="stop-color:#26b6db"/></linearGradient><circle cx="59" cy="59" r="58.7" style="fill:url(#SVGID_1_)"/><circle cx="59" cy="58.8" r="43.7" class="st1"/><path d="M95 48.1c4.7 1.6 9.8-.9 11.4-5.6s-.9-9.8-5.6-11.4-9.8.9-11.4 5.7.9 9.7 5.6 11.3" class="st2"/><path d="m97.9 39.8-30.1 25" class="st1"/><path d="M77.9 91.3c-.4 4.9 3.2 9.3 8.2 9.8 5 .4 9.3-3.2 9.8-8.2.4-4.9-3.2-9.3-8.2-9.8-4.9-.3-9.4 3.2-9.8 8.2" class="st2"/><path d="m86.8 92.2-19-27.4" class="st1"/><path d="M60.3 69.7c2.7 4.2 8.3 5.4 12.4 2.7 4.2-2.7 5.4-8.3 2.7-12.4-2.7-4.2-8.3-5.4-12.4-2.7-4.2 2.5-5.4 8.1-2.7 12.4m-38.8-7.9c-4.3-2.5-9.8-1.1-12.3 3.1-2.5 4.3-1.1 9.8 3.1 12.3 4.3 2.5 9.8 1.1 12.3-3.1 2.5-4.3 1.1-9.8-3.1-12.3" class="st2"/><path d="m16.9 69.4 50.9-4.6" class="st1"/></svg>