<svg xmlns="http://www.w3.org/2000/svg" width="2500" height="2500" preserveAspectRatio="xMidYMid" viewBox="0 0 256 256"><path d="m254.25 124.86-10.747-6.653q-.136-1.567-.306-3.13l9.236-8.615a3.69 3.69 0 0 0 1.105-3.427 3.69 3.69 0 0 0-2.33-2.744l-11.807-4.415q-.445-1.53-.925-3.048l7.365-10.229c1.609-2.23.308-5.374-2.407-5.814l-12.45-2.025c-.484-.944-.988-1.874-1.496-2.796l5.231-11.483a3.68 3.68 0 0 0-.288-3.59 3.68 3.68 0 0 0-3.204-1.642l-12.636.44a100 100 0 0 0-1.996-2.421l2.904-12.308a3.7 3.7 0 0 0-.986-3.466 3.7 3.7 0 0 0-3.464-.986l-12.305 2.901a106 106 0 0 0-2.426-1.996l.442-12.635a3.68 3.68 0 0 0-1.64-3.205 3.69 3.69 0 0 0-3.59-.29l-11.48 5.234a133 133 0 0 0-2.796-1.5l-2.03-12.452c-.443-2.711-3.582-4.011-5.812-2.407l-10.236 7.365q-1.51-.481-3.042-.922l-4.415-11.809a3.69 3.69 0 0 0-2.745-2.336 3.71 3.71 0 0 0-3.424 1.106l-8.615 9.243a111 111 0 0 0-3.13-.306l-6.653-10.75c-1.446-2.336-4.843-2.336-6.289 0l-6.653 10.75q-1.569.131-3.133.306l-8.617-9.243c-1.873-2.014-5.211-1.348-6.169 1.23l-4.414 11.809c-1.023.293-2.035.604-3.045.922l-10.234-7.365a3.69 3.69 0 0 0-3.579-.415 3.7 3.7 0 0 0-2.235 2.822l-2.03 12.452c-.94.487-1.869.988-2.796 1.5l-11.481-5.235a3.69 3.69 0 0 0-3.588.291 3.68 3.68 0 0 0-1.642 3.205l.44 12.635q-1.226.982-2.426 1.996l-12.305-2.9a3.71 3.71 0 0 0-3.466.985 3.7 3.7 0 0 0-.986 3.466l2.899 12.308q-1.01 1.195-1.991 2.421l-12.636-.44c-1.28-.04-2.49.58-3.204 1.641a3.7 3.7 0 0 0-.291 3.59l5.234 11.484c-.509.922-1.012 1.852-1.5 2.796l-12.449 2.025c-2.713.442-4.013 3.584-2.407 5.814l7.365 10.23c-.32 1.01-.631 2.024-.925 3.047l-11.808 4.415c-2.57.966-3.232 4.296-1.225 6.171l9.237 8.614c-.115 1.04-.217 2.087-.305 3.131L1.749 124.86a3.7 3.7 0 0 0-1.75 3.145c0 1.284.663 2.473 1.751 3.143l10.748 6.653q.132 1.572.305 3.131l-9.238 8.617c-2.011 1.873-1.349 5.208 1.226 6.169l11.808 4.415c.294 1.022.605 2.037.925 3.047l-7.365 10.231c-1.61 2.23-.306 5.375 2.41 5.812l12.447 2.025c.487.944.986 1.874 1.5 2.8l-5.235 11.48a3.69 3.69 0 0 0 .291 3.59 3.68 3.68 0 0 0 3.204 1.641l12.63-.442c.659.821 1.322 1.626 1.997 2.426l-2.899 12.31a3.68 3.68 0 0 0 .986 3.459 3.68 3.68 0 0 0 3.466.983l12.305-2.898c.8.68 1.61 1.34 2.427 1.99l-.44 12.639c-.1 2.747 2.73 4.636 5.229 3.492l11.481-5.231q1.386.77 2.796 1.499l2.03 12.445a3.69 3.69 0 0 0 2.235 2.825 3.7 3.7 0 0 0 3.579-.413l10.229-7.37c1.01.32 2.025.633 3.047.927l4.415 11.804a3.69 3.69 0 0 0 2.744 2.331 3.68 3.68 0 0 0 3.425-1.106l8.617-9.238c1.04.12 2.086.22 3.133.313l6.653 10.748a3.7 3.7 0 0 0 3.143 1.75c1.28 0 2.47-.662 3.145-1.75l6.653-10.748c1.047-.093 2.092-.193 3.131-.313l8.615 9.238a3.68 3.68 0 0 0 3.424 1.106 3.69 3.69 0 0 0 2.744-2.331l4.415-11.804c1.022-.294 2.038-.607 3.048-.927l10.231 7.37c2.232 1.604 5.372.301 5.812-2.412l2.03-12.445c.939-.487 1.868-.993 2.795-1.5l11.481 5.232c2.5 1.148 5.332-.743 5.23-3.492l-.44-12.638a99 99 0 0 0 2.423-1.991l12.306 2.898c1.25.294 2.56-.07 3.463-.983a3.68 3.68 0 0 0 .986-3.459l-2.898-12.31c.675-.8 1.34-1.605 1.99-2.426l12.636.442a3.68 3.68 0 0 0 3.204-1.64 3.69 3.69 0 0 0 .289-3.592l-5.232-11.478c.511-.927 1.013-1.857 1.497-2.8l12.45-2.026a3.68 3.68 0 0 0 2.822-2.236 3.7 3.7 0 0 0-.415-3.576l-7.365-10.23q.479-1.516.925-3.048l11.806-4.415a3.68 3.68 0 0 0 2.331-2.745 3.68 3.68 0 0 0-1.106-3.424l-9.235-8.617c.112-1.04.215-2.086.305-3.13l10.748-6.654a3.69 3.69 0 0 0 1.751-3.143c0-1.281-.66-2.472-1.749-3.145m-71.932 89.156c-4.104-.885-6.714-4.93-5.833-9.047.878-4.112 4.92-6.729 9.023-5.844 4.104.879 6.718 4.931 5.838 9.04-.88 4.11-4.926 6.73-9.028 5.851m-131-104.17a6.94 6.94 0 0 0 3.524-9.158s-7.25-16.112-7.032-17.824c1.522-11.97 10.589-23.092 20.547-31.809 10.245-8.968 29.05-12.642 41.033-15.888.844-.229 12.957 12.302 12.957 12.302a6.923 6.923 0 0 0 9.799.226l13.098-12.528c27.445 5.11 50.682 22.194 64.073 45.633l-8.967 20.253c-1.548 3.505.032 7.604 3.527 9.157l17.264 7.668c.298 3.065.455 6.161.455 9.3 2.401 22.942-8.165 47.083-26.846 65.594l-16.082-3.456h-.001a6.93 6.93 0 0 0-8.23 5.332l-3.816 17.807c-11.775 5.344-24.85 8.313-38.621 8.313-14.086 0-27.446-3.116-39.43-8.688l-3.814-17.806c-.802-3.747-4.486-6.134-8.228-5.33l-15.72 3.376c-15.66-17.659-25.993-45.09-26.401-65.142 0-3.398.183-6.756.535-10.056v.001zm21.559 103.8c-4.105.886-8.146-1.731-9.03-5.843-.877-4.119 1.733-8.162 5.837-9.047a7.607 7.607 0 0 1 9.028 5.85c.878 4.11-1.734 8.16-5.836 9.04zM43.86 95.986c1.703 3.842-.03 8.345-3.867 10.045-3.837 1.705-8.328-.03-10.03-3.875a7.615 7.615 0 0 1 3.867-10.045 7.6 7.6 0 0 1 10.03 3.874zm78.492-71.241c3.033-2.905 7.844-2.79 10.748.247 2.898 3.046 2.788 7.862-.252 10.765-3.033 2.906-7.844 2.793-10.748-.25a7.62 7.62 0 0 1 .252-10.762m88.983 71.61a7.594 7.594 0 0 1 10.028-3.872c3.838 1.702 5.57 6.203 3.867 10.045a7.595 7.595 0 0 1-10.03 3.875c-3.833-1.703-5.565-6.2-3.865-10.048" color="#000" style="font-feature-settings:normal;font-variant-alternates:normal;font-variant-caps:normal;font-variant-east-asian:normal;font-variant-ligatures:normal;font-variant-numeric:normal;font-variant-position:normal;font-variation-settings:normal;inline-size:0;isolation:auto;mix-blend-mode:normal;shape-margin:0;shape-padding:0;text-decoration-color:#000;text-decoration-line:none;text-decoration-style:solid;text-indent:0;text-orientation:mixed;text-transform:none;white-space:normal"/><path d="m40.368 56.262 35.459-17.039 51.802 139.85 47.083-133.45 40.067 10.639-61.629 166.39h-51.153z" aria-label="V"/></svg>